ply
format ascii 1.0
comment This is the Bez Array formatted to look like a .ply file
element vertex 36
property float x
property float y
property float z
end_header
-0.717216 0.523837 0.804229
-0.301604 0.593164 0.717294
-0.029368 0.521508 0.508742
0.055058 0.379257 0.337134
-0.092761 0.236798 0.361031
-0.517259 0.164519 0.738996
-0.409804 0.539575 0.682686
-0.016476 0.478667 0.585590
0.187542 0.381764 0.373747
0.231657 0.256362 0.187543
0.145280 0.109961 0.167363
-0.042183 -0.049943 0.453591
-0.179163 0.563252 0.384370
0.119247 0.439985 0.357062
0.268655 0.306045 0.193233
0.312344 0.179554 0.042412
0.293599 0.078635 0.054126
0.255702 0.021411 0.377907
-0.053971 0.494464 -0.027678
0.139771 0.376513 0.082683
0.251124 0.228746 -0.001349
0.313693 0.106671 -0.107677
0.361084 0.065797 -0.064208
0.426900 0.161632 0.301154
-0.062909 0.232804 -0.490416
0.079301 0.187645 -0.186580
0.172101 0.084263 -0.178549
0.252279 -0.004443 -0.272140
0.356622 -0.005574 -0.273169
0.521919 0.153772 0.012547
-0.234660 -0.322133 -0.940800
-0.027957 -0.227222 -0.399756
0.068739 -0.193009 -0.306919
0.144676 -0.195950 -0.460395
0.289101 -0.212500 -0.658288
0.591263 -0.219117 -0.698704
