ply
format ascii 1.0
comment This is the Bez Array formatted to look like a .ply file
element vertex 36
property float x
property float y
property float z
element face 25
property list uchar int vertex_index
end_header
-0.591500 0.046994 0.068269
-0.427617 -0.264997 -0.069581
-0.283676 -0.165616 -0.059714
-0.100854 0.132495 0.024775
0.179672 0.416693 0.110789
0.616724 0.474334 0.125233
-0.051597 0.286764 -0.056935
-0.179411 -0.082411 -0.160506
-0.161385 -0.133477 -0.165590
-0.035405 -0.030056 -0.089557
0.160641 0.064228 0.050227
0.388867 -0.014247 0.236393
0.138056 0.249155 -0.058355
-0.061481 -0.077601 -0.168489
-0.079182 -0.144332 -0.165928
-0.002240 -0.084746 -0.094273
0.082153 -0.032548 0.002875
0.086804 -0.121446 0.081913
0.026709 0.067618 -0.043362
-0.090536 -0.165917 -0.115150
-0.057772 -0.186735 -0.074565
0.011782 -0.102121 -0.000921
0.004906 -0.019358 0.026468
-0.191621 -0.045732 -0.071712
-0.336391 -0.124399 -0.119328
-0.283287 -0.262708 -0.022105
-0.117859 -0.249237 0.094660
0.019800 -0.152729 0.178949
-0.010404 -0.041927 0.178740
-0.348565 0.014424 0.042013
-0.901996 -0.193444 -0.393622
-0.656444 -0.283323 0.089029
-0.280147 -0.320389 0.327911
0.034955 -0.307117 0.433788
0.096922 -0.245978 0.517424
-0.286187 -0.139447 0.689583
4 0 1 6 7
4 1 2 7 8
4 2 3 8 9
4 3 4 9 10
4 4 5 10 11
4 6 7 12 13
4 7 8 13 14
4 8 9 14 15
4 9 10 15 16
4 10 11 16 17
4 12 13 18 19
4 13 14 19 20
4 14 15 20 21
4 15 16 21 22
4 16 17 22 23
4 18 19 24 25
4 19 20 25 26
4 20 21 26 27
4 21 22 27 28
4 22 23 28 29
4 24 25 30 31
4 25 26 31 32
4 26 27 32 33
4 27 28 33 34
4 28 29 34 35
