ply
format ascii 1.0
comment Created by Open Asset Import Library - http://assimp.sf.net (v3.2.0)
element vertex 24
property float x
property float y
property float z
property float nx
property float ny
property float nz
element face 12
property list uchar int vertex_index
end_header
0 0 0 -0 -1 -0
1 0 0 -0 -1 -0
1 0 1 -0 -1 -0
1 1 1 0 1 0
1 1 0 0 1 0
0 1 0 0 1 0
0 1 0 -1 0 -0
0 0 0 -1 0 -0
0 1 1 -1 0 -0
0 1 0 0 0 -1
1 1 0 0 0 -1
1 0 0 0 0 -1
1 0 0 1 0 0
1 1 0 1 0 0
1 1 1 1 0 0
0 0 1 0 0 1
1 0 1 0 0 1
1 1 1 0 0 1
0 0 1 -0 -1 0
0 1 1 0 1 -0
0 0 1 -1 0 0
0 0 0 -0 -0 -1
1 0 1 1 0 -0
0 1 1 0 -0 1
3 0 1 2
3 3 4 5
3 6 7 8
3 9 10 11
3 12 13 14
3 15 16 17
3 18 0 2
3 19 3 5
3 8 7 20
3 21 9 11
3 22 12 14
3 23 15 17
