ply
format ascii 1.0
comment Created by Open Asset Import Library - http://assimp.sf.net (v3.2.0)
element vertex 19
property float x
property float y
property float z
property float nx
property float ny
property float nz
element face 12
property list uchar int vertex_index
end_header
4.55702e-41 0 0 0 9.66896e-44 1.68156e-44
1 0 0 -0 -1 -0
1 0 1 -0 -1 -0
1 1 0 0 1 0
0 1 0 0 1 0
0 0 0 -1 0 -0
0 1 1 -1 0 -0
1 1 0 0 0 -1
1 0 0 0 0 -1
1 1 0 1 0 0
1 1 1 1 0 0
1 0 1 0 0 1
1 1 1 0 0 1
0 0 0 -0 -1 -0
1 1 1 0 1 0
0 0 1 -1 0 0
0 1 0 0 0 -1
1 0 0 1 0 0
0 0 1 0 0 1
3 0 1 2
3 0 3 4
3 0 5 6
3 0 7 8
3 0 9 10
3 0 11 12
3 0 13 2
3 0 14 4
3 0 5 15
3 0 16 8
3 0 17 10
3 0 18 12
